<?xml version="1.0" standalone="no"?>
<!DOCTYPE svg PUBLIC "-//W3C//DTD SVG 20010904//EN"
 "http://www.w3.org/TR/2001/REC-SVG-20010904/DTD/svg10.dtd">
<svg version="1.0" xmlns="http://www.w3.org/2000/svg"
 width="200.000000pt" height="200.000000pt" viewBox="0 0 200.000000 200.000000"
 preserveAspectRatio="xMidYMid meet">
<metadata>
Created by potrace 1.11, written by Peter Selinger 2001-2013
</metadata>
<g transform="translate(0.000000,200.000000) scale(0.100000,-0.100000)"
fill="#000000" stroke="none">
<path d="M829 1636 c-2 -2 -35 -6 -74 -10 -177 -16 -225 -27 -245 -60 -25 -40
-120 -234 -120 -246 0 -6 -5 -8 -10 -5 -6 4 -8 11 -4 16 13 22 -19 39 -72 39
-66 0 -81 -18 -57 -68 11 -23 22 -32 39 -32 30 0 31 -13 1 -37 -32 -25 -87
-103 -87 -123 0 -9 -15 -34 -34 -56 -18 -21 -36 -49 -40 -61 -4 -13 -12 -23
-17 -23 -5 0 -9 -94 -9 -228 0 -224 0 -229 22 -250 19 -17 34 -20 83 -18 33 1
85 -4 115 -12 66 -17 84 -21 130 -28 19 -3 60 -9 90 -14 144 -25 264 -34 465
-35 183 0 298 8 440 30 55 9 111 18 125 20 14 1 32 5 40 8 46 17 133 31 190
32 114 1 110 -9 110 262 0 132 -4 233 -9 233 -5 0 -14 12 -19 28 -6 15 -21 39
-35 53 -13 14 -28 36 -32 50 -13 43 -55 106 -85 129 -17 13 -30 26 -30 29 0 4
15 11 33 16 29 9 32 14 32 50 l0 40 -55 3 c-50 3 -56 0 -70 -23 -16 -25 -16
-25 -74 97 -32 67 -64 127 -70 133 -23 21 -63 34 -126 41 -36 4 -76 9 -90 10
-37 5 -447 14 -451 10z m386 -70 c133 -9 199 -18 218 -27 16 -9 112 -187 105
-195 -2 -2 -27 4 -55 14 -42 14 -52 22 -57 44 -3 14 -18 38 -33 53 -24 23 -34
26 -77 22 -39 -3 -55 -11 -76 -33 l-25 -29 -213 0 c-182 0 -213 2 -217 15 -8
26 -63 52 -103 49 -43 -3 -88 -39 -97 -78 -4 -21 -16 -30 -56 -45 -28 -9 -53
-16 -55 -14 -8 8 87 188 105 197 22 12 73 18 236 27 66 4 121 7 123 9 3 3 183
-3 277 -9z"/>
</g>
</svg>
